<?xml version="1.0" encoding="UTF-8"?>
<svg version="1.1" xmlns="http://www.w3.org/2000/svg" width="2048" height="2048">
<path d="M0 0 C675.84 0 1351.68 0 2048 0 C2048 675.84 2048 1351.68 2048 2048 C1372.16 2048 696.32 2048 0 2048 C0 1372.16 0 696.32 0 0 Z " fill="#F3F7EA" transform="translate(0,0)"/>
<path d="M0 0 C0 3 0 3 -2.12109375 5.7421875 C-5.99405505 10.94524294 -8.01955215 17.03987394 -10.28442383 23.05859375 C-11.05433716 25.10332121 -11.83921736 27.14176903 -12.62695312 29.1796875 C-15.39621401 36.4009423 -17.85944582 43.64120085 -20.07299805 51.05566406 C-21.17786493 54.56493312 -22.51562087 57.9310229 -23.91992188 61.32910156 C-26.19263142 66.9492287 -28.19963685 72.6709374 -30.25 78.375 C-30.71353697 79.64453297 -31.17707861 80.91406423 -31.640625 82.18359375 C-32.2903125 83.99150391 -32.2903125 83.99150391 -32.953125 85.8359375 C-33.34661133 86.92438965 -33.74009766 88.0128418 -34.14550781 89.13427734 C-35.19049641 92.14046967 -35.19049641 92.14046967 -35 96 C-34.23260498 96.27038086 -33.46520996 96.54076172 -32.67456055 96.81933594 C-14.04152017 103.42191028 4.04493449 110.69786912 22 119 C23.59744973 119.72831771 25.19508567 120.45622726 26.79296875 121.18359375 C63.91466941 138.21926937 98.84871005 159.8680782 131 185 C131.92425781 185.71929688 132.84851562 186.43859375 133.80078125 187.1796875 C136.22471357 189.0918567 138.61558657 191.03881051 141 193 C141.94746094 193.76183594 142.89492187 194.52367187 143.87109375 195.30859375 C152.13899276 202.08597784 159.74217419 209.52721529 167.3125 217.0625 C167.82419739 217.569021 168.33589478 218.07554199 168.86309814 218.59741211 C174.99371179 224.67910671 180.73439243 230.87466106 186.11254883 237.64111328 C187.80832397 239.76044836 189.55847466 241.79669098 191.375 243.8125 C196.03288475 249.08354741 200.3065627 254.66281148 204.61669922 260.21826172 C205.89806073 261.86869877 207.18475468 263.51482174 208.47265625 265.16015625 C210.06330119 267.20601014 211.62891413 269.27159541 213.16769981 271.35673523 C215.07054875 273.88671147 217.09050406 276.17196193 219.28733253 278.44929504 C231.37984942 291.77585026 230.85909321 306.29635338 230.6407845 323.26449227 C230.60273977 327.34230196 230.64054052 331.41956366 230.66821289 335.49736023 C230.71036553 343.459853 230.68346854 351.42063898 230.63174848 359.38301748 C230.57372321 368.66737481 230.58218116 377.95133034 230.59224255 387.23582029 C230.60765032 403.80290553 230.55871235 420.36918163 230.47509766 436.93603516 C230.3940735 452.99326874 230.36586656 469.0495158 230.39306641 485.10693359 C230.42266885 502.62649144 230.42402472 520.14560964 230.37551081 537.66514111 C230.37036343 539.53381027 230.36522511 541.40247946 230.36009598 543.27114868 C230.35752755 544.19040872 230.35495912 545.10966876 230.35231286 546.05678517 C230.33596045 552.52199257 230.33895069 558.98702536 230.34891891 565.45223999 C230.36022718 573.32956705 230.33845723 581.20601024 230.27518396 589.08310384 C230.24364895 593.09894888 230.2261744 597.11348961 230.24780655 601.12943077 C230.26717855 604.81012719 230.24458693 608.48815842 230.18932469 612.16846907 C230.17053968 614.12062375 230.19550643 616.07305055 230.22233903 618.0251112 C230.04146062 626.2246429 228.10757814 630.27183735 222.20279014 635.9917829 C221.47586939 636.65449455 220.74894865 637.31720619 220 638 C219.04632365 639.03078487 218.10433621 640.07270511 217.18231201 641.13189697 C210.81162912 648.14758996 204.21913829 654.9040429 197.49475861 661.58040619 C195.64958303 663.41253849 193.80779537 665.24802167 191.96673584 667.08428955 C188.06401115 670.97573058 184.15731274 674.86316647 180.25 678.75 C175.70084653 683.27540393 171.15341811 687.80251534 166.61019135 692.33386993 C164.809356 694.12829956 163.00550265 695.91965508 161.20147705 697.71087646 C156.10172556 702.78803381 151.05377629 707.86644823 146.40556335 713.36834717 C143.94310634 716.22689847 141.25068156 718.85566582 138.5625 721.5 C138.02173828 722.03625 137.48097656 722.5725 136.92382812 723.125 C135.61823383 724.41904036 134.30947004 725.70988174 133 727 C136.68080918 730.72861189 140.45760564 734.32721375 144.3125 737.875 C145.10817383 738.61169922 145.10817383 738.61169922 145.91992188 739.36328125 C148.90795321 742.11871134 151.93164 744.82583049 154.99609375 747.49609375 C168.3085767 759.10698114 180.73220892 771.63982139 193.15136719 784.18823242 C193.74065002 784.78178024 194.32993286 785.37532806 194.93707275 785.98686218 C196.03810051 787.09603028 197.1370547 788.20726295 198.2333374 789.32112122 C203.6991668 794.82194361 209.50620411 799.84948654 215.64188862 804.58901405 C224.09594171 811.51984539 229.80389251 817.67452118 231.03624189 828.84104705 C231.3397042 834.65011932 231.3490338 840.43116064 231.22111261 846.24344015 C231.16111286 849.88389403 231.20662475 853.52338287 231.23805237 857.16398621 C231.28312061 864.27239155 231.23306779 871.37698847 231.14939966 878.48491953 C231.05526236 886.78526758 231.05659318 895.0848241 231.06095288 903.38560541 C231.0654456 918.21131691 230.9833695 933.03527339 230.85229492 947.86035156 C230.7255786 962.20019496 230.66175701 976.53849509 230.66772461 990.87890625 C230.66808422 991.76195483 230.66844382 992.64500342 230.66881432 993.55481105 C230.66917751 994.43642966 230.6695407 995.31804828 230.6699149 996.22638261 C230.67614787 1012.61559117 230.62296916 1029.00415229 230.54253596 1045.39314985 C230.51555598 1051.15932159 230.50583993 1056.92537294 230.50174522 1062.6916008 C230.49556028 1069.73435763 230.45475877 1076.77602257 230.37274995 1083.81831716 C230.33162305 1087.40196784 230.30361087 1090.98423798 230.31509781 1094.56814003 C230.35508866 1110.681687 229.19807438 1123.62579141 221.20412791 1137.82858777 C219.4535275 1140.98545766 217.88844429 1144.22757711 216.3064186 1147.4713167 C210.76983284 1158.77201991 203.45838053 1168.90807923 196 1179 C195.51966309 1179.65291016 195.03932617 1180.30582031 194.54443359 1180.97851562 C189.74541741 1187.46546164 184.67258938 1193.61890837 179.19921875 1199.55078125 C176.94213763 1202.06443997 174.8475417 1204.66478343 172.75 1207.3125 C168.73030328 1212.29128225 164.36798527 1216.78569723 159.78027344 1221.23364258 C156.90450973 1224.03379893 154.18943747 1226.89467092 151.57421875 1229.94140625 C148.08835604 1233.97379763 144.34761954 1237.63231635 140.4375 1241.25 C139.38997559 1242.22259766 139.38997559 1242.22259766 138.32128906 1243.21484375 C121.13665885 1259.08237532 102.79287648 1273.50155487 83 1286 C82.29568848 1286.44875488 81.59137695 1286.89750977 80.86572266 1287.35986328 C58.51293539 1301.50419149 34.76613926 1312.78521804 10 1322 C8.88657227 1322.41733398 7.77314453 1322.83466797 6.62597656 1323.26464844 C-10.37457054 1329.59969011 -27.53373919 1335.10421031 -45 1340 C-46.72645752 1340.49064941 -46.72645752 1340.49064941 -48.48779297 1340.99121094 C-105.25266332 1357.04418158 -164.20148978 1366.20401899 -222.8125 1372.25 C-223.60587769 1372.33335602 -224.39925537 1372.41671204 -225.2166748 1372.50259399 C-247.35729799 1374.80252423 -269.56618839 1375.23634407 -291.8125 1375.25 C-292.97177002 1375.25100708 -294.13104004 1375.25201416 -295.32543945 1375.25305176 C-326.9765557 1375.23467885 -358.30533141 1373.19795813 -389.61132812 1368.49853516 C-392.91966339 1368.01181897 -396.23081854 1367.56736898 -399.546875 1367.13671875 C-414.11397117 1365.21469378 -428.55260046 1362.72295612 -443 1360.0625 C-444.34425552 1359.81759827 -444.34425552 1359.81759827 -445.71566772 1359.56774902 C-463.02868426 1356.4001016 -480.02487909 1352.3484762 -496.875 1347.25 C-505.32587559 1344.64887628 -505.32587559 1344.64887628 -514 1343 C-522.23703607 1353.16485302 -530.19843168 1363.49828181 -538 1374 C-544.89293173 1383.26166044 -551.87071295 1392.44630874 -558.97973633 1401.54345703 C-563.10892026 1406.83319846 -567.14904866 1412.17969223 -571.15625 1417.5625 C-573.3481048 1420.46020634 -575.62963369 1423.24731655 -578 1426 C-578.33 1425.34 -578.66 1424.68 -579 1424 C-569.03635185 1408.49755365 -557.78883431 1393.90303442 -546.4375 1379.40234375 C-543.07378798 1375.10373999 -539.74945981 1370.77605251 -536.4375 1366.4375 C-535.63880493 1365.39227173 -535.63880493 1365.39227173 -534.82397461 1364.32592773 C-532.12759963 1360.79498973 -529.43757478 1357.25935445 -526.75390625 1353.71875 C-521.36037702 1346.61582716 -515.90093794 1339.5880615 -510.25 1332.6875 C-505.88651386 1327.3585501 -501.65205385 1321.96788597 -497.5546875 1316.4296875 C-494.19285539 1311.89273847 -490.74361363 1307.42210023 -487.3125 1302.9375 C-482.04999365 1296.05311048 -476.86200705 1289.12176939 -471.75 1282.125 C-467.16330046 1275.85181522 -462.43956987 1269.7311075 -457.53808594 1263.70166016 C-453.53495129 1258.74609208 -449.75338693 1253.64649163 -446 1248.5 C-441.21362352 1241.93787325 -436.29630137 1235.52240052 -431.1875 1229.20874023 C-426.6399943 1223.58303069 -422.30790413 1217.81099588 -418 1212 C-409.66949726 1200.83414175 -401.25964906 1189.73574904 -392.6875 1178.75390625 C-386.4714017 1170.78797026 -380.30658609 1162.79236797 -374.26269531 1154.69482422 C-369.57235658 1148.41328885 -364.79309113 1142.2032771 -360 1136 C-358.33219153 1133.83421096 -356.66610295 1131.6671012 -355 1129.5 C-354.16669812 1128.41664248 -353.33336481 1127.33330912 -352.5 1126.25 C-352.0875 1125.71375 -351.675 1125.1775 -351.25 1124.625 C-347.5 1119.74999999 -347.5 1119.74999999 -346.25146484 1118.12695312 C-345.41318584 1117.03715772 -344.57497029 1115.94731351 -343.73681641 1114.85742188 C-341.72965229 1112.24756416 -339.72134848 1109.63860895 -337.7109375 1107.03125 C-327.54453285 1093.83872491 -317.42584647 1080.60820751 -307.45703125 1067.265625 C-303.36978413 1061.81596217 -299.2199768 1056.41334324 -295.08740234 1050.99804688 C-290.90819819 1045.51718762 -286.75198219 1040.02027091 -282.625 1034.5 C-276.36698553 1026.13453612 -270.00507045 1017.85272259 -263.58203125 1009.61328125 C-257.84046092 1002.24798119 -252.1175237 994.8768998 -246.5390625 987.38671875 C-243.06150076 982.73099062 -239.52532985 978.11957867 -236 973.5 C-231.12128623 967.10526077 -226.26197138 960.69841121 -221.44921875 954.25390625 C-218.7864255 950.70313084 -216.08570778 947.18142959 -213.39013672 943.65551758 C-207.4808006 935.92477269 -201.62052886 928.16588973 -195.875 920.3125 C-190.73813323 913.29476315 -185.46587589 906.39864071 -180.10449219 899.55126953 C-175.89155714 894.16545525 -171.76218368 888.72416754 -167.67480469 883.24267578 C-163.53241818 877.69274823 -159.33204319 872.18851706 -155.125 866.6875 C-150.01840651 860.00467052 -144.97082188 853.28440406 -140 846.5 C-133.13558866 837.13473037 -126.10639853 827.90015362 -119.04980469 818.67919922 C-109.40222242 806.06931739 -99.78927193 793.43484602 -90.28466797 780.71679688 C-88.40355965 778.20293263 -86.51328595 775.69597528 -84.625 773.1875 C-80.7811012 768.0646186 -76.9824838 762.90919032 -73.1875 757.75 C-64.9452 746.55002637 -56.61834968 735.41923939 -48.17480469 724.37011719 C-39.99596984 713.66632523 -31.95815899 702.86857142 -24 692 C-16.09236114 681.20042465 -8.10363421 670.47439846 0.03198242 659.84521484 C4.47942319 654.02465565 8.85757279 648.1584078 13.1875 642.25 C19.10221093 634.18267312 25.14373636 626.22147779 31.24023438 618.29101562 C40.96687344 605.62803269 50.61290837 592.91698518 60 580 C47.93887741 580.57173457 35.88917818 581.30869232 23.83984375 582.0859375 C23.04871815 582.13694862 22.25759254 582.18795975 21.44249344 582.24051666 C14.78939993 582.66994744 8.1364836 583.10210001 1.48358154 583.53448486 C-25.69612721 585.30050035 -52.88054894 586.97218952 -80.0696106 588.58776855 C-87.3615404 589.02118479 -94.65330461 589.45735518 -101.94506836 589.89355469 C-113.65579978 590.59384446 -125.36674377 591.2904868 -137.07787228 591.98410416 C-143.74351053 592.37897154 -150.40907114 592.77506892 -157.07446289 593.17407227 C-163.68067326 593.56952996 -170.28707979 593.96158623 -176.89361763 594.35154152 C-179.37145174 594.4983352 -181.84922049 594.64623693 -184.32691765 594.79532433 C-187.75805655 595.00158875 -191.18941343 595.20377944 -194.62084961 595.4050293 C-196.11280602 595.49614235 -196.11280602 595.49614235 -197.63490295 595.58909607 C-204.09691542 595.96254471 -210.52774337 596.06748065 -217 596 C-214.80643471 587.55090492 -212.17072138 579.30846291 -209.3125 571.0625 C-209.07868622 570.38461426 -208.84487244 569.70672852 -208.60397339 569.00830078 C-203.74500382 554.93268072 -198.64776219 540.9451704 -193.53833008 526.95898438 C-187.96026111 511.68331938 -182.46396744 496.37932909 -177 481.0625 C-176.57743927 479.87799255 -176.15487854 478.69348511 -175.71951294 477.4730835 C-173.20762562 470.43010491 -170.69808726 463.38629178 -168.18994141 456.34197998 C-167.04225706 453.11868001 -165.89421966 449.89550599 -164.74609375 446.67236328 C-154.19322577 417.04387483 -143.68189954 387.40115105 -133.29879761 357.71270752 C-118.460854 315.28658792 -103.51298543 272.9033376 -88.29876709 230.61053467 C-84.54027176 220.16202716 -80.78412023 209.71267643 -77.027771 199.26339722 C-76.05330662 196.55268669 -75.07872984 193.84201661 -74.10406494 191.13137817 C-66.284173 169.38280575 -58.49546122 147.62327044 -50.73266602 125.85424805 C-35.96452143 84.44467909 -35.96452143 84.44467909 -28.625 64.75 C-28.35607941 64.02716827 -28.08715881 63.30433655 -27.81008911 62.55960083 C-23.88392258 52.007051 -19.9271553 41.4662083 -15.9375 30.9375 C-15.27645264 29.19194824 -15.27645264 29.19194824 -14.60205078 27.41113281 C-13.78448716 25.25984935 -12.96311344 23.11000843 -12.13720703 20.96191406 C-11.39356519 19.02506072 -10.65973806 17.0844031 -9.93701172 15.13964844 C-8.21644758 10.61517123 -6.66145372 6.91766348 -3.25 3.375 C-2.63640625 2.72273438 -2.0228125 2.07046875 -1.390625 1.3984375 C-0.93171875 0.93695313 -0.4728125 0.47546875 0 0 Z " fill="#40A8B0" transform="translate(1296,346)"/>
<path d="M0 0 C0.86945251 0.1400647 1.73890503 0.28012939 2.63470459 0.42443848 C23.71844945 3.82499187 44.36423597 8.53581165 65 14 C63.77455312 17.34810884 62.44094062 20.01743382 60.2421875 22.8203125 C59.70343994 23.51431152 59.16469238 24.20831055 58.60961914 24.92333984 C58.03719482 25.6498877 57.46477051 26.37643555 56.875 27.125 C55.68265564 28.66073044 54.49124606 30.19718711 53.30078125 31.734375 C52.72666504 32.47365234 52.15254883 33.21292969 51.56103516 33.97460938 C49.04073981 37.24460785 46.62917123 40.5890881 44.21484375 43.9375 C36.50687381 54.59543375 28.68754171 65.16335229 20.62890625 75.55859375 C16.70682934 80.65775353 12.92195069 85.85986209 9.11474609 91.04492188 C5.11227141 96.49556666 1.07210207 101.91462138 -2.99609375 107.31640625 C-5.00354883 110.00475253 -6.97410474 112.7168509 -8.9375 115.4375 C-12.16782164 119.89902478 -15.50533659 124.26600115 -18.88012695 128.61889648 C-22.53798998 133.3573831 -26.08703255 138.17158097 -29.625 143 C-34.75429348 149.99956936 -39.97198351 156.92445207 -45.25 163.8125 C-50.13822896 170.19390293 -54.93431489 176.6172215 -59.56445312 183.18798828 C-62.5920224 187.47110834 -65.76100393 191.62796155 -68.97900391 195.76904297 C-74.50976088 202.91036997 -79.82089586 210.21520906 -85.16357422 217.49755859 C-88.20892497 221.64736519 -91.26012342 225.79285953 -94.3125 229.9375 C-94.90256836 230.73881348 -95.49263672 231.54012695 -96.10058594 232.36572266 C-99.91032923 237.53455373 -103.75260543 242.67767709 -107.61328125 247.80859375 C-112.5037835 254.34793964 -117.33063518 260.93456548 -122.16943359 267.51220703 C-125.69385588 272.30199939 -129.22257349 277.088628 -132.75097656 281.87548828 C-135.65817836 285.82005094 -138.56353037 289.76594754 -141.46484375 293.71484375 C-148.12711949 302.77786357 -154.83873624 311.80129286 -161.59863281 320.79174805 C-165.77781573 326.35508071 -169.91208768 331.94873649 -174.01513672 337.56835938 C-177.2465716 341.98843666 -180.52059869 346.37481093 -183.8125 350.75 C-192.25252875 361.97496332 -200.61113192 373.26067127 -208.79589844 384.67333984 C-214.80535011 393.05200948 -220.9921491 401.27651681 -227.26464844 409.45996094 C-231.37119819 414.82884304 -235.3858972 420.24359373 -239.28295898 425.76586914 C-244.46527301 433.10273694 -249.8328163 440.30410728 -255.17236328 447.52685547 C-258.18122475 451.59842462 -261.18439667 455.67418288 -264.1875 459.75 C-264.77241211 460.54365967 -265.35732422 461.33731934 -265.95996094 462.1550293 C-269.92186149 467.53229157 -273.87505411 472.91585533 -277.8215332 478.30444336 C-280.31992609 481.71423398 -282.82459588 485.11926352 -285.3359375 488.51953125 C-292.74943788 498.55793699 -300.10048223 508.6381433 -307.39111328 518.76611328 C-310.09012128 522.51359784 -312.79538884 526.25655845 -315.5 530 C-316.58336304 531.49997854 -317.66669638 532.99997854 -318.75 534.5 C-377.25 615.5 -377.25 615.5 -378.87524414 617.75024414 C-379.95788254 619.2493445 -381.0404022 620.74853062 -382.12280273 622.24780273 C-384.84079823 626.01228168 -387.56088068 629.77521904 -390.28515625 633.53515625 C-395.56580617 640.82748234 -400.81934332 648.13621886 -406 655.5 C-415.09153766 668.41766563 -424.38144544 681.1864752 -433.7668457 693.8918457 C-439.36621747 701.47906822 -444.88699437 709.12158473 -450.39550781 716.77490234 C-451.99638463 718.99498623 -453.60275431 721.21098549 -455.2109375 723.42578125 C-461.47475423 732.05881856 -467.64497454 740.7502121 -473.74291992 749.5012207 C-478.39738228 756.16937588 -483.1351452 762.77409075 -487.9140625 769.35351562 C-488.67589844 770.40249023 -488.67589844 770.40249023 -489.453125 771.47265625 C-489.89817383 772.08375244 -490.34322266 772.69484863 -490.80175781 773.32446289 C-491.90014876 774.86037508 -492.95258723 776.42888084 -494 778 C-493.12606094 777.99066437 -492.25212189 777.98132874 -491.35169983 777.97171021 C-481.20825844 777.91181739 -471.1247345 778.28814214 -460.99609375 778.8046875 C-459.28202003 778.88928688 -457.56792854 778.97352692 -455.8538208 779.05743408 C-452.2440287 779.23472787 -448.63434989 779.41411622 -445.02474976 779.59527588 C-436.55831163 780.01998559 -428.09130649 780.43316169 -419.62435341 780.84745407 C-416.83900693 780.98384215 -414.05368067 781.12063755 -411.26835632 781.25747681 C-397.74310682 781.92093395 -384.2168423 782.55013925 -370.6875 783.125 C-369.81312286 783.16219147 -368.93874573 783.19938293 -368.03787231 783.23770142 C-364.61077382 783.3831438 -361.18365404 783.52805855 -357.75648499 783.67182922 C-351.17450528 783.9483054 -344.5930676 784.2362645 -338.01171875 784.52734375 C-313.66581537 785.60796749 -313.66581537 785.60796749 -289.3125 786.5 C-278.61620782 786.85392744 -267.93465755 787.39765051 -257.25 788 C-256.49248444 788.0419751 -255.73496887 788.0839502 -254.95449829 788.12719727 C-252.78717208 788.24820121 -250.62012704 788.37333572 -248.453125 788.5 C-247.20692383 788.5721875 -245.96072266 788.644375 -244.67675781 788.71875 C-240.75749435 789.01855023 -236.89597164 789.48326433 -233 790 C-233.65648961 796.11681585 -235.90842342 801.59871699 -238.0625 807.3125 C-238.71255005 809.05152588 -238.71255005 809.05152588 -239.37573242 810.82568359 C-246.05366799 828.62531995 -253.04632527 846.30684937 -260 864 C-260.29495361 864.75081848 -260.58990723 865.50163696 -260.89379883 866.27520752 C-265.81853732 878.81119339 -270.76129642 891.34004344 -275.71446228 903.86482239 C-291.67754454 944.23061679 -307.37920948 984.69855006 -322.92651367 1025.22631836 C-327.05574052 1035.98999608 -331.23124683 1046.73505183 -335.42605591 1057.47329712 C-338.61943772 1065.64805779 -341.8103628 1073.8237776 -345 1082 C-345.40377869 1083.03501648 -345.80755737 1084.07003296 -346.22357178 1085.13641357 C-348.77776008 1091.68522998 -351.32838382 1098.2354209 -353.87527466 1104.78707886 C-354.69631945 1106.89790439 -355.51829214 1109.00836927 -356.34127808 1111.11843872 C-360.5818283 1121.99268645 -364.7518211 1132.86683847 -368.51123047 1143.91796875 C-370.05680148 1148.30427617 -371.88729821 1152.56633133 -373.6907959 1156.85150146 C-375.79847726 1161.92025406 -377.76706119 1167.0410243 -379.73828125 1172.1640625 C-380.17658768 1173.29995819 -380.6148941 1174.43585388 -381.06648254 1175.60617065 C-382.0008727 1178.02859199 -382.93452616 1180.45129759 -383.86749268 1182.87426758 C-385.081711 1186.02741041 -386.29932159 1189.179231 -387.51795578 1192.3306694 C-392.36981791 1204.87967864 -397.18642189 1217.43909288 -401.86328125 1230.0546875 C-402.59636817 1232.02140741 -403.32967777 1233.98804434 -404.06323242 1235.95458984 C-405.41793811 1239.58686509 -406.75201957 1243.22585634 -408.07543945 1246.86962891 C-408.6770903 1248.4863031 -409.27949905 1250.10269552 -409.8828125 1251.71875 C-410.14230179 1252.45133026 -410.40179108 1253.18391052 -410.66914368 1253.93869019 C-412.45311342 1258.64376253 -412.45311342 1258.64376253 -414.71020508 1260.11401367 C-418.28726958 1259.93590416 -421.43714331 1258.70750219 -424.75390625 1257.45703125 C-425.51850662 1257.17759171 -426.28310699 1256.89815216 -427.07087708 1256.61024475 C-429.57298647 1255.69032909 -432.06798209 1254.75279115 -434.5625 1253.8125 C-435.41668518 1253.49388 -436.27087036 1253.17526001 -437.15093994 1252.84698486 C-487.86168762 1233.91429181 -536.59073569 1208.48009567 -577 1172 C-577.55478027 1171.50161621 -578.10956055 1171.00323242 -578.68115234 1170.48974609 C-586.79119118 1163.16447483 -594.59635972 1155.52021098 -602.3520813 1147.82315063 C-603.34947353 1146.83379303 -604.34834191 1145.84592082 -605.34884644 1144.85971069 C-611.30412764 1138.98070663 -616.85983052 1132.95685401 -622.06225586 1126.39916992 C-623.85829247 1124.17545167 -625.72937089 1122.0808259 -627.6875 1120 C-644.29667451 1101.47565228 -657.52665766 1079.4246161 -670 1058 C-670.67643271 1057.04787691 -671.35286543 1056.09575382 -672.0497961 1055.11477852 C-674.96419224 1049.96139911 -674.58258849 1044.5990208 -674.5684967 1038.818573 C-674.58108676 1037.59261512 -674.59367681 1036.36665724 -674.60664839 1035.10354912 C-674.63721582 1031.71234744 -674.64994932 1028.3219469 -674.6548301 1024.93066835 C-674.66431854 1021.26851454 -674.69654679 1017.60654621 -674.72544861 1013.94450378 C-674.79008559 1005.10788103 -674.81679252 996.27129253 -674.84036294 987.43448132 C-674.85249446 983.26806802 -674.86922912 979.10167401 -674.88570976 974.93527603 C-674.93928406 961.07756201 -674.98467758 947.21987002 -675.00208378 933.36205864 C-675.0032136 932.47582381 -675.00434343 931.58958897 -675.0055075 930.67649854 C-675.00663607 929.78819687 -675.00776464 928.89989519 -675.0089274 927.98467529 C-675.01122629 926.18477049 -675.01354023 924.3848657 -675.01586914 922.58496094 C-675.01759118 921.24575119 -675.01759118 921.24575119 -675.01934802 919.87948669 C-675.03948583 905.41942923 -675.11717199 890.96029625 -675.21952838 876.50060998 C-675.32387078 861.63950112 -675.37914545 846.77885745 -675.38583177 831.91737759 C-675.39073847 823.57922054 -675.41655564 815.24231052 -675.49675179 806.90450668 C-675.56484327 799.80316616 -675.58797736 792.70343196 -675.5535707 785.60181837 C-675.537361 781.98180833 -675.54167032 778.36505223 -675.60350418 774.74546242 C-675.9897292 750.80590799 -675.9897292 750.80590799 -669.44629329 743.57485592 C-666.77949134 741.09400231 -664.01085822 739.05628234 -661 737 C-659.58798874 735.78945236 -658.18693866 734.5655442 -656.8125 733.3125 C-656.20019531 732.79300781 -655.58789062 732.27351563 -654.95703125 731.73828125 C-651.7128047 728.85668282 -648.71348128 725.73276456 -645.6875 722.625 C-643.60816793 720.59402449 -641.5152766 718.70122612 -639.3125 716.8125 C-634.28952757 712.45862896 -629.66252709 707.73317144 -625 703 C-615.51461008 693.37089205 -615.51461008 693.37089205 -611.03125 689.53125 C-605.90817206 685.13857072 -601.23485253 680.30278441 -596.5 675.5 C-591.05300349 669.97485433 -585.64952961 664.51049302 -579.67382812 659.55273438 C-577.84353805 657.85485735 -576.44024008 656.03392682 -575 654 C-580.4057884 648.5047776 -585.79247945 643.06923375 -591.65625 638.05859375 C-594.91983881 635.19207491 -598.08078023 632.22010442 -601.25 629.25 C-614.32240008 616.98958243 -614.32240008 616.98958243 -627.76953125 605.14453125 C-629.628652 603.35704037 -631.25105911 601.56492749 -632.91796875 599.60546875 C-638.42331004 593.2334574 -644.5158812 587.41671923 -650.5 581.5 C-664.65314546 567.50626245 -664.65314546 567.50626245 -669.65039062 561.56835938 C-670.94912238 559.9634358 -670.94912238 559.9634358 -672.55900955 558.74384022 C-674.57000244 556.31020141 -674.38677018 554.66481036 -674.40545654 551.53019714 C-674.41944677 550.38642074 -674.433437 549.24264433 -674.44785118 548.06420803 C-674.44798021 546.80189389 -674.44810925 545.53957975 -674.44824219 544.23901367 C-674.45885481 542.88877122 -674.47074433 541.53853829 -674.4838047 540.1883173 C-674.51582941 536.46925111 -674.52889565 532.75032068 -674.53876448 529.03113842 C-674.55252219 525.02254241 -674.58329086 521.01406978 -674.61148071 517.0055542 C-674.67557036 507.3159124 -674.71030949 497.62624895 -674.74099636 487.93645239 C-674.75295718 484.28462515 -674.76670083 480.63280559 -674.78049099 476.98098487 C-674.84115615 460.87337779 -674.89283552 444.7657669 -674.91995239 428.6580658 C-674.92670161 424.71410102 -674.93350394 420.77013635 -674.94042969 416.82617188 C-674.94214322 415.8459494 -674.94385675 414.86572693 -674.94562221 413.85580075 C-674.97482448 398.00605852 -675.05863122 382.15710232 -675.16539288 366.30771196 C-675.27420149 350.02064481 -675.33357061 333.73397686 -675.34516144 317.4465456 C-675.35288401 308.30779665 -675.38183517 299.17022189 -675.46618652 290.03182983 C-675.5379476 282.24149046 -675.56454416 274.45259263 -675.5340575 266.66195548 C-675.51986878 262.69297169 -675.52588867 258.72697151 -675.59004593 254.75841522 C-675.86194097 236.97892711 -674.92157546 223.50777307 -662.54848766 209.74106884 C-660.37793763 207.30057344 -658.5179094 204.69738211 -656.6171875 202.04296875 C-655.37515861 200.42035692 -654.12790538 198.8017283 -652.875 197.1875 C-652.20251221 196.31424072 -651.53002441 195.44098145 -650.8371582 194.54125977 C-649.50508434 192.8140024 -648.17064444 191.08856635 -646.83349609 189.36523438 C-645.18943453 187.24437306 -643.55586527 185.11598171 -641.92578125 182.984375 C-636.80864194 176.33209389 -631.45036873 170.03152745 -625.703125 163.9140625 C-623.68977139 161.74359748 -621.75009974 159.55380061 -619.82421875 157.30859375 C-615.30456654 152.1201361 -610.43645083 147.29066639 -605.5625 142.4375 C-604.20801758 141.0772168 -604.20801758 141.0772168 -602.82617188 139.68945312 C-598.23674466 135.10667244 -593.5935027 130.65985108 -588.66967773 126.43774414 C-586.63639509 124.68690316 -584.70008372 122.84259879 -582.75 121 C-556.20785266 97.09987345 -524.22957085 78.29341293 -492.50244141 62.26660156 C-490.28995072 61.14675749 -488.08677479 60.01119479 -485.88671875 58.8671875 C-450.29780428 40.49576125 -412.41848496 27.90772093 -374 17 C-372.29215332 16.51128418 -372.29215332 16.51128418 -370.54980469 16.01269531 C-354.17643852 11.37348592 -337.50296974 8.06551294 -320.8203125 4.7578125 C-317.63914506 4.12678338 -314.45996812 3.48695103 -311.28125 2.84375 C-287.68310189 -1.86254474 -263.86950406 -5.24993671 -239.93847656 -7.69580078 C-235.6222693 -8.14262649 -231.31138321 -8.63416418 -227 -9.125 C-151.75746367 -17.63457256 -74.42770813 -12.11106864 0 0 Z " fill="#41A8AF" transform="translate(1164,419)"/>
<path d="M0 0 C0 3 0 3 -2.12109375 5.7421875 C-5.99405505 10.94524294 -8.01955215 17.03987394 -10.28442383 23.05859375 C-11.05433716 25.10332121 -11.83921736 27.14176903 -12.62695312 29.1796875 C-15.39557172 36.39926744 -17.85932969 43.63752085 -20.07080078 51.05078125 C-21.18645677 54.59180183 -22.54195161 57.9881517 -23.95947266 61.41699219 C-26.04242617 66.58772146 -27.83410913 71.86866797 -29.6875 77.125 C-33.28851645 87.28092374 -36.9963918 97.38999971 -40.81079102 107.46777344 C-43.48062175 114.54700484 -46.00605897 121.66710446 -48.46630859 128.8215332 C-50.68734628 135.23317126 -53.11291941 141.55131913 -55.69189453 147.82763672 C-57.43192762 152.15667478 -58.58450116 156.37734577 -59.52807617 160.9440918 C-60.14538062 163.63334208 -61.12516917 166.04662838 -62.25 168.5625 C-67.39544073 180.47745863 -71.66056206 192.69216098 -75.65893555 205.03393555 C-77.42028976 210.40522272 -79.36648697 215.67856146 -81.4375 220.9375 C-81.74606934 221.72817871 -82.05463867 222.51885742 -82.37255859 223.33349609 C-83.91660925 227.28174977 -85.49677534 231.21061501 -87.125 235.125 C-89.07637447 239.949462 -90.55593642 244.91252099 -92.06811523 249.88696289 C-93.77188167 255.43059047 -95.7963944 260.80951604 -97.9296875 266.203125 C-99.16688697 269.4360988 -100.14275954 272.64896913 -101 276 C-101.66 276 -102.32 276 -103 276 C-103.08636719 276.55945313 -103.17273437 277.11890625 -103.26171875 277.6953125 C-104.40374185 284.21217828 -106.37781 290.21562123 -108.68359375 296.41015625 C-109.64724857 299.03804579 -110.553406 301.65764919 -111.421875 304.31640625 C-113.04766578 309.23849174 -114.92606687 314.04817884 -116.8125 318.875 C-119.85188034 326.73065078 -122.58677167 334.6274113 -125.0090332 342.69482422 C-126.04520559 346.11939102 -127.13303491 349.4356526 -128.5703125 352.71484375 C-129.79786263 355.53552588 -130.74002344 358.23128426 -131.5625 361.1875 C-132.24339731 363.63026718 -132.89670095 365.80023787 -134.0625 368.0546875 C-135.31305097 370.64958077 -135.36330848 373.22942656 -135.66015625 376.0625 C-136.13957742 378.79575174 -137.52148587 380.66849694 -139 383 C-139.82139046 385.19319722 -140.53040566 387.4083824 -141.23828125 389.640625 C-142.36884916 393.14248662 -143.6875621 396.56266265 -145 400 C-145.66 399.67 -146.32 399.34 -147 399 C-144.80475014 391.43856182 -142.34327373 383.98726278 -139.78125 376.54296875 C-139.16650314 374.75089745 -139.16650314 374.75089745 -138.53933716 372.92262268 C-137.42798842 369.68485494 -136.31348877 366.44818111 -135.19782257 363.2118988 C-134.49330389 361.16807443 -133.78943689 359.12402643 -133.08563232 357.07995605 C-125.97753519 336.44431312 -118.71556057 315.86825185 -111.31298828 295.33618164 C-105.43289045 279.02475449 -99.63206825 262.68664044 -93.86141968 246.33627319 C-86.09205639 224.32315032 -78.26614369 202.33290201 -70.29833984 180.390625 C-63.81176806 162.52211438 -57.41948845 144.6202939 -51.03637695 126.71459961 C-36.01789567 84.58790212 -36.01789567 84.58790212 -28.625 64.75 C-28.35607941 64.02716827 -28.08715881 63.30433655 -27.81008911 62.55960083 C-23.88392258 52.007051 -19.9271553 41.4662083 -15.9375 30.9375 C-15.49680176 29.77379883 -15.05610352 28.61009766 -14.60205078 27.41113281 C-13.78448716 25.25984935 -12.96311344 23.11000843 -12.13720703 20.96191406 C-11.39356519 19.02506072 -10.65973806 17.0844031 -9.93701172 15.13964844 C-8.21644758 10.61517123 -6.66145372 6.91766348 -3.25 3.375 C-2.32960938 2.39660156 -2.32960938 2.39660156 -1.390625 1.3984375 C-0.93171875 0.93695313 -0.4728125 0.47546875 0 0 Z " fill="#4F9296" transform="translate(1296,346)"/>
<path d="M0 0 C1.19308684 3.99630349 0.55279567 6.26608859 -0.75 10.25 C-1.12640625 11.40628906 -1.5028125 12.56257812 -1.890625 13.75390625 C-3.44798797 18.31083805 -5.08794926 22.80191957 -6.93359375 27.25 C-9.2771449 32.94017867 -11.16423508 38.66839114 -12.9296875 44.5625 C-14.42152318 49.35379707 -16.12909025 54.05812318 -17.84375 58.7734375 C-18.80686138 61.46103884 -19.70210286 64.15352643 -20.5625 66.875 C-21.48496697 69.71015271 -22.59561917 72.24642305 -24 74.875 C-26.17619079 79.00225839 -27.27505171 83.26236085 -28.38671875 87.77734375 C-29 90 -29 90 -30 91 C-30.2475 92.258125 -30.495 93.51625 -30.75 94.8125 C-31.80993437 99.8036835 -33.67603121 104.2578592 -35.6953125 108.9296875 C-38.18781937 114.7952875 -40.56024817 120.78027211 -42 127 C-42.66 127 -43.32 127 -44 127 C-43.95359375 127.88558594 -43.9071875 128.77117187 -43.859375 129.68359375 C-44.00745136 133.17572795 -44.67141462 134.98616043 -46.25 138.0625 C-48.78333373 143.30140544 -50.50959737 148.56339845 -52.10546875 154.15234375 C-52.88545217 156.63534775 -53.79390824 158.70842565 -55 161 C-55.70582918 162.6380564 -56.39260837 164.28442141 -57.0625 165.9375 C-57.40410156 166.77152344 -57.74570313 167.60554687 -58.09765625 168.46484375 C-58.98862041 170.96802878 -59.54632472 173.38552083 -60 176 C-60.66 175.67 -61.32 175.34 -62 175 C-60.06486313 167.45683385 -57.73761732 160.16405259 -55.03515625 152.86328125 C-54.64998337 151.81072647 -54.26481049 150.75817169 -53.8679657 149.67372131 C-53.03724963 147.40450033 -52.20461571 145.13598067 -51.37023926 142.86810303 C-49.34178794 137.35296108 -47.32620761 131.83312079 -45.31094742 126.3131485 C-44.84412323 125.03458589 -44.37714979 123.75607776 -43.91003036 122.47762299 C-38.79115964 108.46681551 -33.7589782 94.42545908 -28.75 80.375 C-28.33824524 79.22053375 -27.92649048 78.0660675 -27.5022583 76.87661743 C-23.09099433 64.50658695 -18.6907216 52.13265177 -14.29296875 39.7578125 C-13.92062103 38.71015717 -13.54827332 37.66250183 -13.16464233 36.58309937 C-11.4199135 31.67356072 -9.67613312 26.76369002 -7.93457031 21.85302734 C-7.31966281 20.12076775 -6.70475403 18.38850861 -6.08984375 16.65625 C-5.81891403 15.89120148 -5.54798431 15.12615295 -5.2688446 14.33792114 C-3.56427095 9.53833187 -1.80017333 4.76459101 0 0 Z " fill="#51969B" transform="translate(1148,746)"/>
<path d="M0 0 C0.99 1.485 0.99 1.485 2 3 C1.27296875 3.8971875 0.5459375 4.794375 -0.203125 5.71875 C-7.68593696 14.99054741 -14.89549038 24.43659495 -22 34 C-28.89293173 43.26166044 -35.87071295 52.44630874 -42.97973633 61.54345703 C-47.10892026 66.83319846 -51.14904866 72.17969223 -55.15625 77.5625 C-57.3481048 80.46020634 -59.62963369 83.24731655 -62 86 C-62.33 85.34 -62.66 84.68 -63 84 C-53.03635185 68.49755365 -41.78883431 53.90303442 -30.4375 39.40234375 C-27.07378986 35.10374239 -23.74928521 30.77618372 -20.4375 26.4375 C-19.91373779 25.75155762 -19.38997559 25.06561523 -18.8503418 24.35888672 C-17.23298607 22.23969586 -15.61641335 20.11990972 -14 18 C-11.58429514 14.83259802 -9.16742876 11.66608636 -6.75 8.5 C-6.18853271 7.76322021 -5.62706543 7.02644043 -5.04858398 6.26733398 C-4.27430054 5.25328491 -4.27430054 5.25328491 -3.484375 4.21875 C-2.79939941 3.3205957 -2.79939941 3.3205957 -2.10058594 2.40429688 C-1 1 -1 1 0 0 Z " fill="#6DACA1" transform="translate(780,1686)"/>
<path d="M0 0 C1.32175113 3.6348156 0.65798652 5.6522295 -0.75 9.1875 C-2.05695668 12.51828884 -3.29231252 15.845433 -4.40234375 19.24609375 C-6.03284419 24.19277012 -7.91704053 29.02508312 -9.8125 33.875 C-12.85188034 41.73065078 -15.58677167 49.6274113 -18.0090332 57.69482422 C-19.04520559 61.11939102 -20.13303491 64.4356526 -21.5703125 67.71484375 C-22.79786263 70.53552588 -23.74002344 73.23128426 -24.5625 76.1875 C-25.24339731 78.63026718 -25.89670095 80.80023787 -27.0625 83.0546875 C-28.31305097 85.64958077 -28.36330848 88.22942656 -28.66015625 91.0625 C-29.13957742 93.79575174 -30.52148587 95.66849694 -32 98 C-32.82139046 100.19319722 -33.53040566 102.4083824 -34.23828125 104.640625 C-35.36884916 108.14248662 -36.6875621 111.56266265 -38 115 C-38.66 114.67 -39.32 114.34 -40 114 C-37.77050247 106.30537937 -35.25134593 98.72901254 -32.640625 91.15625 C-32.21885986 89.92855896 -31.79709473 88.70086792 -31.36254883 87.43597412 C-30.22856613 84.13652462 -29.09167224 80.83808615 -27.95375061 77.53999329 C-27.24812152 75.49455476 -26.54312768 73.44889818 -25.83825684 71.40319824 C-19.72201789 53.65714684 -13.5539914 35.9303971 -7.25 18.25 C-6.77367126 16.91038208 -6.77367126 16.91038208 -6.28771973 15.54370117 C-5.40878732 13.07476403 -4.52568139 10.60737245 -3.640625 8.140625 C-3.38434326 7.42074402 -3.12806152 6.70086304 -2.86401367 5.95916748 C-1.11588505 1.11588505 -1.11588505 1.11588505 0 0 Z " fill="#518F94" transform="translate(1189,631)"/>
<path d="M0 0 C0 3 0 3 -2.12109375 5.7421875 C-5.99405505 10.94524294 -8.01955215 17.03987394 -10.28442383 23.05859375 C-11.05433716 25.10332121 -11.83921736 27.14176903 -12.62695312 29.1796875 C-15.39621307 36.40093986 -17.86041919 43.64088607 -20.07226562 51.0559082 C-21.17818961 54.56547067 -22.52663572 57.92705539 -23.93310547 61.32470703 C-25.20684823 64.5186826 -26.34205594 67.74871734 -27.47265625 70.99609375 C-27.89740234 72.21361328 -28.32214844 73.43113281 -28.75976562 74.68554688 C-29.41620373 76.57612797 -30.07252194 78.46676317 -30.72094727 80.36010742 C-31.35950524 82.22064721 -32.00967234 84.07718989 -32.66015625 85.93359375 C-33.03793213 87.02728271 -33.41570801 88.12097168 -33.80493164 89.24780273 C-34.92963847 91.83796006 -35.85139393 93.22105492 -38 95 C-37.47348003 89.47895337 -36.45459347 84.93313736 -34.41015625 79.73046875 C-34.15009293 79.06022171 -33.8900296 78.38997467 -33.62208557 77.69941711 C-32.77692169 75.5255466 -31.9196403 73.35667248 -31.0625 71.1875 C-30.17052654 68.90028112 -29.28192318 66.61177179 -28.39355469 64.32315063 C-27.79462217 62.78058577 -27.19468493 61.23841064 -26.59375 59.69662476 C-23.85463872 52.66095477 -21.22804126 45.58719456 -18.625 38.5 C-17.81940222 36.32667764 -17.01342654 34.15349532 -16.20703125 31.98046875 C-14.80594035 28.19939305 -13.42975205 24.41089805 -12.07421875 20.61328125 C-9.20540406 12.7183905 -6.5185278 5.66656216 0 0 Z " fill="#707F7A" transform="translate(1296,346)"/>
<path d="M0 0 C0.66 1.32 1.32 2.64 2 4 C1.3915625 4.76699219 0.783125 5.53398438 0.15625 6.32421875 C-6.47392816 14.71058179 -12.97814929 23.18755998 -19.42773438 31.71362305 C-22.85483162 36.23312877 -26.3214068 40.68226898 -30 45 C-30.33 44.34 -30.66 43.68 -31 43 C-21.44263057 28.12968297 -10.64080109 14.10328399 0 0 Z " fill="#73ADA5" transform="translate(748,1727)"/>
<path d="M0 0 C0 3.594757 -0.52577647 3.91825677 -2.9375 6.4140625 C-3.5778418 7.08493896 -4.21818359 7.75581543 -4.87792969 8.44702148 C-5.57821289 9.16575439 -6.27849609 9.8844873 -7 10.625 C-8.46396677 12.14933142 -9.92749528 13.67408386 -11.390625 15.19921875 C-12.14923828 15.98603027 -12.90785156 16.7728418 -13.68945312 17.58349609 C-15.97893987 19.9779741 -18.2363422 22.39863955 -20.484375 24.83203125 C-21.19980469 25.60401855 -21.91523437 26.37600586 -22.65234375 27.17138672 C-24.02838268 28.65793157 -25.40090769 30.14773849 -26.76953125 31.64111328 C-27.71119141 32.65214111 -27.71119141 32.65214111 -28.671875 33.68359375 C-29.2194043 34.27712646 -29.76693359 34.87065918 -30.33105469 35.48217773 C-32.10724558 37.09753449 -33.8612932 37.94162732 -36 39 C-36.33 39.66 -36.66 40.32 -37 41 C-37 38 -37 38 -35.55053711 36.22583008 C-34.8828833 35.58025146 -34.21522949 34.93467285 -33.52734375 34.26953125 C-32.42422852 33.18768555 -32.42422852 33.18768555 -31.29882812 32.08398438 C-30.51958984 31.33439453 -29.74035156 30.58480469 -28.9375 29.8125 C-23.97786637 24.99736298 -19.18367232 20.16019658 -14.68139648 14.9128418 C-11.94740001 11.80250894 -9.01144097 8.90492692 -6.0625 6 C-5.17981445 5.12408203 -5.17981445 5.12408203 -4.27929688 4.23046875 C-2.85520207 2.81795195 -1.4279475 1.4086219 0 0 Z " fill="#DEF8ED" transform="translate(1466,1034)"/>
<path d="M0 0 C-2.28203738 2.52759047 -4.54304302 3.9644046 -7.578125 5.48828125 C-8.48506104 5.94485107 -9.39199707 6.4014209 -10.32641602 6.87182617 C-11.29119873 7.34724854 -12.25598145 7.8226709 -13.25 8.3125 C-14.23476318 8.80016846 -15.21952637 9.28783691 -16.23413086 9.7902832 C-38.05667434 20.47840419 -38.05667434 20.47840419 -45 20 C-44.34 19.34 -43.68 18.68 -43 18 C-41.68 18 -40.36 18 -39 18 C-39 17.34 -39 16.68 -39 16 C-35.5980513 13.90649311 -32.94727588 13.82057837 -29 14 C-29 13.34 -29 12.68 -29 12 C-25.535 11.505 -25.535 11.505 -22 11 C-21.67 10.01 -21.34 9.02 -21 8 C-19.0980741 7.26592334 -17.19082647 6.54233342 -15.2578125 5.89453125 C-12.86473983 4.94641076 -10.94277887 3.75023574 -8.8125 2.3125 C-5.75150876 0.295989 -3.75878002 -0.58730938 0 0 Z " fill="#43A2A1" transform="translate(1356,1644)"/>
<path d="M0 0 C0.66 0.33 1.32 0.66 2 1 C-4.73626629 8.68064249 -11.81222476 15.93498265 -19.0625 23.125 C-20.12979417 24.18726206 -21.19685278 25.24976083 -22.26367188 26.3125 C-24.83974925 28.87772359 -27.41896071 31.4397678 -30 34 C-30.66 33.67 -31.32 33.34 -32 33 C-21.62945841 21.69577621 -10.90720283 10.78617719 0 0 Z " fill="#56AAA9" transform="translate(569,551)"/>
<path d="M0 0 C0.66 0 1.32 0 2 0 C1.45423069 5.0483661 -0.17949412 9.46285755 -1.953125 14.1796875 C-3.1611031 17.43401656 -4.23800391 20.71960053 -5.2890625 24.02734375 C-6.04291429 26.11907536 -6.99401406 28.01817002 -8 30 C-8.70582918 31.6380564 -9.39260837 33.28442141 -10.0625 34.9375 C-10.40410156 35.77152344 -10.74570313 36.60554687 -11.09765625 37.46484375 C-11.98862041 39.96802878 -12.54632472 42.38552083 -13 45 C-13.66 44.67 -14.32 44.34 -15 44 C-12.64844549 34.34122214 -9.25096784 25.12162086 -5.8125 15.8125 C-5.24763196 14.27293863 -4.68317581 12.73322607 -4.11914062 11.19335938 C-2.75083007 7.46048179 -1.37698265 3.72968686 0 0 Z " fill="#569B9F" transform="translate(1101,877)"/>
<path d="M0 0 C0.66 0.66 1.32 1.32 2 2 C-4.69668153 7.32842268 -11.4711889 12.48343023 -18.625 17.1875 C-19.21619629 17.58573975 -19.80739258 17.98397949 -20.41650391 18.39428711 C-22.1015625 19.48046875 -22.1015625 19.48046875 -25 21 C-25.99 20.67 -26.98 20.34 -28 20 C-26.60387736 17.20775471 -24.69511726 16.55717886 -22 15 C-19.9934562 13.67653494 -17.99371825 12.34270821 -16 11 C-7 5 -7 5 -4 5 C-3.71125 4.360625 -3.4225 3.72125 -3.125 3.0625 C-2 1 -2 1 0 0 Z " fill="#44A5A2" transform="translate(1401,1613)"/>
<path d="M0 0 C0.33 0.66 0.66 1.32 1 2 C0.20335937 3.051875 0.20335937 3.051875 -0.609375 4.125 C-4.26286899 9.03188244 -7.55850471 13.74825682 -10.14453125 19.29296875 C-12.43710803 23.86765392 -16.22757494 27.61449033 -20 31 C-20.99 31 -21.98 31 -23 31 C-15.37786919 20.63298985 -7.75005754 10.27190166 0 0 Z " fill="#58AAAB" transform="translate(831,1619)"/>
<path d="M0 0 C1.40946032 4.22838096 -0.28472566 7.06743097 -1.859375 11.02734375 C-2.31694183 12.20533287 -2.31694183 12.20533287 -2.78375244 13.40711975 C-3.4317288 15.06899569 -4.08434344 16.72906941 -4.74121094 18.38745117 C-5.74301316 20.91983846 -6.72805124 23.4582668 -7.7109375 25.99804688 C-8.34275844 27.6123676 -8.97553987 29.2263128 -9.609375 30.83984375 C-10.05020416 31.97594337 -10.05020416 31.97594337 -10.49993896 33.13499451 C-11.96659245 36.81474103 -13.37624456 39.96497736 -16 43 C-15.343621 38.51474352 -14.29925791 34.33085971 -13 30 C-12.34 30 -11.68 30 -11 30 C-11 28.35 -11 26.7 -11 25 C-10.34 25 -9.68 25 -9 25 C-8.83564453 24.02160156 -8.83564453 24.02160156 -8.66796875 23.0234375 C-7.72048436 17.80071864 -6.38008177 13.76016354 -4 9 C-3.48235653 6.32388091 -3.23467962 3.72228361 -3 1 C-2.01 1.33 -1.02 1.66 0 2 C0 1.34 0 0.68 0 0 Z " fill="#5AA7A7" transform="translate(837,1449)"/>
<path d="M0 0 C1.125 3.703125 1.125 3.703125 0 6.375 C-1.72085915 8.63362763 -3.06441441 9.91197346 -5.25 11.625 C-9.32711137 14.9365778 -11.6646186 18.97125858 -14.35546875 23.4296875 C-16.28699831 26.44856268 -18.32090448 28.64564333 -21 31 C-21.66 30.67 -22.32 30.34 -23 30 C-22.62302979 29.51756836 -22.24605957 29.03513672 -21.85766602 28.53808594 C-14.48095846 19.09176778 -7.13697614 9.62925352 0 0 Z " fill="#55A8A9" transform="translate(887,1546)"/>
<path d="M0 0 C1.2065625 0.0309375 1.2065625 0.0309375 2.4375 0.0625 C-1.41071091 3.91071091 -7.37368448 4.99797399 -12.4375 6.75 C-14.23380859 7.39291992 -14.23380859 7.39291992 -16.06640625 8.04882812 C-17.21753906 8.44908203 -18.36867188 8.84933594 -19.5546875 9.26171875 C-21.13805908 9.81605591 -21.13805908 9.81605591 -22.75341797 10.3815918 C-25.55736482 11.06125526 -26.90325152 11.06521332 -29.5625 10.0625 C-28.9025 10.0625 -28.2425 10.0625 -27.5625 10.0625 C-27.5625 9.4025 -27.5625 8.7425 -27.5625 8.0625 C-23.06593896 5.81421948 -19.48377034 5.89567728 -14.5625 6.0625 C-14.5625 5.4025 -14.5625 4.7425 -14.5625 4.0625 C-13.78003906 3.85753906 -12.99757813 3.65257812 -12.19140625 3.44140625 C-11.17949219 3.17199219 -10.16757813 2.90257812 -9.125 2.625 C-8.11566406 2.35816406 -7.10632812 2.09132813 -6.06640625 1.81640625 C-0.03664741 0.00089384 -0.03664741 0.00089384 0 0 Z " fill="#46A3A2" transform="translate(1300.5625,1667.9375)"/>
<path d="M0 0 C1.39456452 0.00667256 2.78911118 0.01863093 4.18359375 0.03515625 C4.89451172 0.03966797 5.60542969 0.04417969 6.33789062 0.04882812 C8.09899388 0.06064761 9.86005411 0.07858362 11.62109375 0.09765625 C11.62109375 0.42765625 11.62109375 0.75765625 11.62109375 1.09765625 C7.33128592 1.77665762 3.03900405 2.43857873 -1.25390625 3.09765625 C-3.05988281 3.38382813 -3.05988281 3.38382813 -4.90234375 3.67578125 C-11.78920138 4.72378132 -18.41177088 5.38736676 -25.37890625 5.09765625 C-25.37890625 4.76765625 -25.37890625 4.43765625 -25.37890625 4.09765625 C-24.74799072 4.01201416 -24.1170752 3.92637207 -23.46704102 3.83813477 C-20.62454944 3.44981911 -17.78298756 3.05507544 -14.94140625 2.66015625 C-13.94818359 2.52544922 -12.95496094 2.39074219 -11.93164062 2.25195312 C-10.98740234 2.11982422 -10.04316406 1.98769531 -9.0703125 1.8515625 C-8.19576416 1.73111572 -7.32121582 1.61066895 -6.42016602 1.48657227 C-3.24462621 0.88154477 -3.75832634 0.10862215 0 0 Z " fill="#469EA1" transform="translate(1116.37890625,1709.90234375)"/>
<path d="M0 0 C0.99 0.33 1.98 0.66 3 1 C0.78340239 3.3041126 -1.4503173 5.5908834 -3.6875 7.875 C-4.62625977 8.85146484 -4.62625977 8.85146484 -5.58398438 9.84765625 C-8.8281834 13.14281128 -11.40544013 15.75252868 -16 17 C-11.01595832 10.96668638 -5.58084697 5.4815829 0 0 Z " fill="#4CA6A6" transform="translate(540,1121)"/>
<path d="M0 0 C-3.91184109 1.20381509 -7.83010896 2.38518719 -11.75 3.5625 C-12.86117188 3.90474609 -13.97234375 4.24699219 -15.1171875 4.59960938 C-16.72207031 5.07817383 -16.72207031 5.07817383 -18.359375 5.56640625 C-19.34389648 5.86490479 -20.32841797 6.16340332 -21.34277344 6.47094727 C-24.02075415 7.00413214 -25.4607199 6.90876725 -28 6 C-22.23702506 3.13185275 -17.41190857 1.55275074 -11 1 C-10.01 0.67 -9.02 0.34 -8 0 C-4.65903756 -0.83524061 -3.3408808 -1.11362693 0 0 Z " fill="#45A0A0" transform="translate(1264,1682)"/>
<path d="M0 0 C0 3 0 3 -1.19335938 4.53393555 C-1.73798828 5.062854 -2.28261719 5.59177246 -2.84375 6.13671875 C-3.72353516 7.00200195 -3.72353516 7.00200195 -4.62109375 7.88476562 C-5.24113281 8.47966797 -5.86117187 9.07457031 -6.5 9.6875 C-7.12003906 10.29400391 -7.74007812 10.90050781 -8.37890625 11.52539062 C-9.91264707 13.02373743 -11.45548198 14.51276493 -13 16 C-13.99 15.67 -14.98 15.34 -16 15 C-13.71240451 12.68344197 -11.41925113 10.37246517 -9.125 8.0625 C-8.47402344 7.40314453 -7.82304688 6.74378906 -7.15234375 6.06445312 C-6.52714844 5.43603516 -5.90195312 4.80761719 -5.2578125 4.16015625 C-4.6817627 3.57886963 -4.10571289 2.99758301 -3.51220703 2.39868164 C-2 1 -2 1 0 0 Z " fill="#4FA9AB" transform="translate(523,1138)"/>
<path d="M0 0 C0.66 0 1.32 0 2 0 C0.18633597 4.12764916 -2.49146618 7.62059205 -5.125 11.25 C-5.59292969 11.8996875 -6.06085937 12.549375 -6.54296875 13.21875 C-7.69274282 14.81435483 -8.84602566 16.40743025 -10 18 C-10.33 17.01 -10.66 16.02 -11 15 C-10.34 14.01 -9.68 13.02 -9 12 C-8.34 12 -7.68 12 -7 12 C-7.33 11.01 -7.66 10.02 -8 9 C-6.71034824 7.62437146 -5.37310707 6.29233607 -4 5 C-3.34 5 -2.68 5 -2 5 C-1.855625 4.360625 -1.71125 3.72125 -1.5625 3.0625 C-1 1 -1 1 0 0 Z " fill="#52A8A6" transform="translate(1022,709)"/>
<path d="M0 0 C0.66 0 1.32 0 2 0 C0.55797524 4.15151338 -1.5010438 7.29978445 -4.125 10.8125 C-5.21167969 12.27623047 -5.21167969 12.27623047 -6.3203125 13.76953125 C-6.87460938 14.50558594 -7.42890625 15.24164062 -8 16 C-8.33 15.01 -8.66 14.02 -9 13 C-7.33008991 9.74367532 -5.2356448 6.88770787 -3 4 C-2.484375 3.2575 -1.96875 2.515 -1.4375 1.75 C-0.963125 1.1725 -0.48875 0.595 0 0 Z " fill="#3EA2A2" transform="translate(1501,1507)"/>
<path d="M0 0 C0.99 0.33 1.98 0.66 3 1 C1.21328657 3.48287435 -0.57904406 5.96132575 -2.375 8.4375 C-2.88289062 9.14455078 -3.39078125 9.85160156 -3.9140625 10.58007812 C-4.40390625 11.25361328 -4.89375 11.92714844 -5.3984375 12.62109375 C-5.84880371 13.2442749 -6.29916992 13.86745605 -6.76318359 14.50952148 C-8 16 -8 16 -10 17 C-9.67 15.35 -9.34 13.7 -9 12 C-8.34 12 -7.68 12 -7 12 C-7 11.34 -7 10.68 -7 10 C-6.34 10 -5.68 10 -5 10 C-4.9175 9.46375 -4.835 8.9275 -4.75 8.375 C-3.73623902 5.1647569 -1.92839451 2.73707608 0 0 Z " fill="#51A7A3" transform="translate(920,846)"/>
<path d="M0 0 C0.66 0 1.32 0 2 0 C1.25 7.75 1.25 7.75 -1 10 C-1.77039001 12.18745776 -2.47061303 14.40008429 -3.125 16.625 C-3.47820312 17.81351563 -3.83140625 19.00203125 -4.1953125 20.2265625 C-4.46085937 21.14179687 -4.72640625 22.05703125 -5 23 C-5.66 22.67 -6.32 22.34 -7 22 C-5.0827282 14.49068545 -2.75950985 7.24196241 0 0 Z " fill="#5CA2A7" transform="translate(1093,899)"/>
<path d="M0 0 C0.99 0.33 1.98 0.66 3 1 C-1.29 5.29 -5.58 9.58 -10 14 C-10.33 13.01 -10.66 12.02 -11 11 C-7.37 7.37 -3.74 3.74 0 0 Z " fill="#3EA2A1" transform="translate(1460,1559)"/>
<path d="M0 0 C12.04394251 -0.12812705 23.98168818 0.20446163 36 1 C36 1.33 36 1.66 36 2 C32.85463232 2.19594676 29.70869386 2.3803401 26.5625 2.5625 C25.66466797 2.61857422 24.76683594 2.67464844 23.84179688 2.73242188 C22.98779297 2.78076172 22.13378906 2.82910156 21.25390625 2.87890625 C20.46314697 2.9260376 19.6723877 2.97316895 18.85766602 3.02172852 C17 3 17 3 16 2 C13.30764224 1.76321284 10.63501844 1.57801975 7.9375 1.4375 C7.17888672 1.39431641 6.42027344 1.35113281 5.63867188 1.30664062 C3.75934562 1.20026367 1.87969756 1.09960066 0 1 C0 0.67 0 0.34 0 0 Z " fill="#61AAB0" transform="translate(688,1198)"/>
<path d="M0 0 C0 3 0 3 -1.3203125 4.68359375 C-6.37592612 9.59694984 -11.25684637 13.62006342 -18 16 C-14.25333462 12.14044075 -10.31478678 8.63380746 -6.1875 5.1875 C-5.59001953 4.68541016 -4.99253906 4.18332031 -4.37695312 3.66601562 C-2.91971152 2.44193268 -1.46010135 1.22067038 0 0 Z " fill="#DAF8ED" transform="translate(1424,1597)"/>
<path d="M0 0 C1 3 1 3 0.2590332 4.68579102 C-0.13968994 5.28576904 -0.53841309 5.88574707 -0.94921875 6.50390625 C-1.60374023 7.49100586 -1.60374023 7.49100586 -2.27148438 8.49804688 C-2.73876953 9.17931641 -3.20605469 9.86058594 -3.6875 10.5625 C-4.13544922 11.24763672 -4.58339844 11.93277344 -5.04492188 12.63867188 C-7.42633969 16.17093499 -8.99940134 18.28074765 -13 20 C-8.75127462 13.27494651 -4.44635898 6.59624684 0 0 Z " fill="#D3F3EB" transform="translate(1506,1503)"/>
<path d="M0 0 C0.66 0 1.32 0 2 0 C0.61219205 3.89006773 -1.2152227 6.96558708 -3.625 10.3125 C-4.25664063 11.19550781 -4.88828125 12.07851563 -5.5390625 12.98828125 C-6.02117188 13.65214844 -6.50328125 14.31601562 -7 15 C-7.66 13.68 -8.32 12.36 -9 11 C-7.88200014 9.66079162 -6.75538103 8.32877444 -5.625 7 C-4.99851562 6.2575 -4.37203125 5.515 -3.7265625 4.75 C-3.15679688 4.1725 -2.58703125 3.595 -2 3 C-1.34 3 -0.68 3 0 3 C0 2.01 0 1.02 0 0 Z " fill="#4FA6A4" transform="translate(811,996)"/>
<path d="M0 0 C0.99 0.33 1.98 0.66 3 1 C-1.95 7.93 -1.95 7.93 -7 15 C-8 11 -8 11 -6.75 8.25 C-6.1725 7.5075 -5.595 6.765 -5 6 C-4.01 6 -3.02 6 -2 6 C-1.855625 5.38125 -1.71125 4.7625 -1.5625 4.125 C-1 2 -1 2 0 0 Z " fill="#51A8A5" transform="translate(931,831)"/>
<path d="M0 0 C0.66 0.33 1.32 0.66 2 1 C0.43632643 4.52238047 -1.69495889 7.27123994 -4.125 10.25 C-4.84945312 11.14203125 -5.57390625 12.0340625 -6.3203125 12.953125 C-6.87460937 13.62859375 -7.42890625 14.3040625 -8 15 C-8.33 14.34 -8.66 13.68 -9 13 C-7.68889201 11.01989841 -6.37618664 9.04088963 -5.0625 7.0625 C-4.50272461 6.21655273 -4.50272461 6.21655273 -3.93164062 5.35351562 C-1.11328125 1.11328125 -1.11328125 1.11328125 0 0 Z " fill="#87B4A6" transform="translate(726,1757)"/>
<path d="M0 0 C2.70108504 0.090916 5.36930311 0.23740766 8.0625 0.4375 C9.20041992 0.51581055 9.20041992 0.51581055 10.36132812 0.59570312 C12.24121722 0.72575835 14.12065685 0.86228038 16 1 C16 1.33 16 1.66 16 2 C5.63946908 2.83360594 -4.6094206 3.12288464 -15 3 C-15 2.67 -15 2.34 -15 2 C-14.00097656 1.93941406 -13.00195312 1.87882813 -11.97265625 1.81640625 C-10.68230469 1.73261719 -9.39195313 1.64882813 -8.0625 1.5625 C-6.77472656 1.48128906 -5.48695312 1.40007813 -4.16015625 1.31640625 C-1.13976043 1.35080812 -1.13976043 1.35080812 0 0 Z " fill="#3E9AA4" transform="translate(1237,930)"/>
<path d="M0 0 C0.99 0.66 1.98 1.32 3 2 C-1.29 4.64 -5.58 7.28 -10 10 C-10.66 9.34 -11.32 8.68 -12 8 C-8 5.33333333 -4 2.66666667 0 0 Z " fill="#4AA6A3" transform="translate(1371,1633)"/>
<path d="M0 0 C0.66 0 1.32 0 2 0 C1.41827275 3.9520518 -0.55157741 6.22095053 -3.0625 9.25 C-3.79597656 10.14203125 -4.52945313 11.0340625 -5.28515625 11.953125 C-5.85105469 12.62859375 -6.41695312 13.3040625 -7 14 C-7.33 13.01 -7.66 12.02 -8 11 C-7.01 10.67 -6.02 10.34 -5 10 C-4.62243192 8.67851173 -4.2981424 7.34164079 -4 6 C-1.47368421 1.47368421 -1.47368421 1.47368421 0 0 Z " fill="#51A9A7" transform="translate(946,811)"/>
<path d="M0 0 C1.13702419 3.33527097 0.88480118 5.08996202 -0.43359375 8.328125 C-0.75263672 9.12734375 -1.07167969 9.9265625 -1.40039062 10.75 C-1.74263672 11.575 -2.08488281 12.4 -2.4375 13.25 C-2.94506836 14.51070312 -2.94506836 14.51070312 -3.46289062 15.796875 C-4.29873438 17.86882572 -5.14466649 19.93603615 -6 22 C-7.28766772 18.13699683 -6.42557356 16.76823585 -5 13 C-4.36191406 11.30230469 -4.36191406 11.30230469 -3.7109375 9.5703125 C-3.27007813 8.43335938 -2.82921875 7.29640625 -2.375 6.125 C-1.92898438 4.97257812 -1.48296875 3.82015625 -1.0234375 2.6328125 C-0.68570313 1.76398438 -0.34796875 0.89515625 0 0 Z " fill="#5CA9A9" transform="translate(928,1214)"/>
<path d="M0 0 C0.33 0.99 0.66 1.98 1 3 C-2.63 6.63 -6.26 10.26 -10 14 C-10.66 13.67 -11.32 13.34 -12 13 C-8.04 8.71 -4.08 4.42 0 0 Z " fill="#DAF8EC" transform="translate(1479,1541)"/>
<path d="M0 0 C0.66 0 1.32 0 2 0 C0.44298069 4.67105792 -2.08447373 8.08705685 -5 12 C-5.66 11.67 -6.32 11.34 -7 11 C-5.51131293 6.39860359 -3.25370145 3.49772906 0 0 Z " fill="#4EA8A5" transform="translate(764,1061)"/>
<path d="M0 0 C0.33 0.66 0.66 1.32 1 2 C-1.39831431 6.88887148 -4.00175912 10.33494586 -8 14 C-8.66 13.67 -9.32 13.34 -10 13 C-5.05 6.565 -5.05 6.565 0 0 Z " fill="#54A8AA" transform="translate(952,1461)"/>
<path d="M0 0 C0.66 0.33 1.32 0.66 2 1 C1.52747321 5.81977325 0.70836561 8.99161889 -2 13 C-2.68096422 14.32608822 -3.35330586 15.65686601 -4 17 C-5.3274855 13.01754349 -3.99907829 10.55210457 -2.5625 6.8125 C-2.19801758 5.83120117 -2.19801758 5.83120117 -1.82617188 4.83007812 C-1.2256707 3.21696714 -0.61390797 1.6080565 0 0 Z " fill="#599AA0" transform="translate(1154,729)"/>
<path d="M0 0 C0.66 0.33 1.32 0.66 2 1 C0.6062718 5.43458973 -1.60582235 7.87378374 -5 11 C-4.54663921 6.12637153 -3.2910841 3.60957611 0 0 Z " fill="#4BA5A5" transform="translate(1155,529)"/>
<path d="M0 0 C1 3 1 3 0 5.3125 C-2.57725066 8.77568057 -5.63853487 11.32003739 -9 14 C-7.45158425 10.65291949 -5.50894136 7.75332488 -3.375 4.75 C-2.74335937 3.85796875 -2.11171875 2.9659375 -1.4609375 2.046875 C-0.73777344 1.03367187 -0.73777344 1.03367187 0 0 Z " fill="#59AAAC" transform="translate(989,1412)"/>
<path d="M0 0 C0.99 0.33 1.98 0.66 3 1 C1.6905332 2.33631236 0.37734515 3.66897925 -0.9375 5 C-1.66839844 5.7425 -2.39929688 6.485 -3.15234375 7.25 C-5 9 -5 9 -6 9 C-6.375 6.75 -6.375 6.75 -6 4 C-3.1875 1.625 -3.1875 1.625 0 0 Z " fill="#E2F6EE" transform="translate(510,1147)"/>
<path d="M0 0 C0.99 0 1.98 0 3 0 C1.44298069 4.67105792 -1.08447373 8.08705685 -4 12 C-4.93134261 9.47856025 -5.16007332 8.38473764 -4.109375 5.859375 C-3.43648437 4.81523438 -3.43648437 4.81523438 -2.75 3.75 C-2.31171875 3.04359375 -1.8734375 2.3371875 -1.421875 1.609375 C-0.95265625 1.07828125 -0.4834375 0.5471875 0 0 Z " fill="#4DA6A2" transform="translate(834,963)"/>
<path d="M0 0 C0.33 0.66 0.66 1.32 1 2 C-1.22175915 6.57421001 -4.64419019 10.2315016 -8 14 C-8 9.96618977 -6.40426438 8.50566363 -4 5.3125 C-3.2575 4.31863281 -2.515 3.32476563 -1.75 2.30078125 C-1.1725 1.54152344 -0.595 0.78226563 0 0 Z " fill="#D5F2E8" transform="translate(968,785)"/>
<path d="M0 0 C0.66 0.66 1.32 1.32 2 2 C0.90716423 3.03295436 -0.19970579 4.05107835 -1.3125 5.0625 C-1.92738281 5.63097656 -2.54226563 6.19945312 -3.17578125 6.78515625 C-3.77777344 7.18605469 -4.37976562 7.58695313 -5 8 C-5.99 7.67 -6.98 7.34 -8 7 C-5.42215154 4.35247996 -3.08351902 2.05567935 0 0 Z " fill="#44A5A4" transform="translate(1420,1598)"/>
<path d="M0 0 C0.66 0.66 1.32 1.32 2 2 C0.71451591 3.33929505 -0.57858155 4.67128643 -1.875 6 C-2.59429688 6.7425 -3.31359375 7.485 -4.0546875 8.25 C-6 10 -6 10 -8 10 C-6.34908222 5.70761377 -3.26245434 3.1206085 0 0 Z " fill="#3FA4A1" transform="translate(1435,1584)"/>
<path d="M0 0 C0.33 1.32 0.66 2.64 1 4 C-0.65234375 6.359375 -0.65234375 6.359375 -2.9375 8.75 C-4.06478516 9.94882813 -4.06478516 9.94882813 -5.21484375 11.171875 C-5.80394531 11.77515625 -6.39304687 12.3784375 -7 13 C-7.66 12.67 -8.32 12.34 -9 12 C-6.03 8.04 -3.06 4.08 0 0 Z " fill="#57AAAB" transform="translate(1073,1302)"/>
<path d="M0 0 C-1.38188453 3.21043882 -2.92421903 5.04936365 -5.625 7.25 C-6.57246094 8.03117188 -6.57246094 8.03117188 -7.5390625 8.828125 C-8.02117187 9.21484375 -8.50328125 9.6015625 -9 10 C-9 7 -9 7 -7.5390625 5.17578125 C-6.90742187 4.56089844 -6.27578125 3.94601562 -5.625 3.3125 C-4.68527344 2.37857422 -4.68527344 2.37857422 -3.7265625 1.42578125 C-2 0 -2 0 0 0 Z " fill="#36A2A7" transform="translate(1521,977)"/>
<path d="M0 0 C0.99 0.33 1.98 0.66 3 1 C0.69 3.97 -1.62 6.94 -4 10 C-4.33 9.01 -4.66 8.02 -5 7 C-2 2 -2 2 0 0 Z " fill="#4CA6A5" transform="translate(966,784)"/>
<path d="M0 0 C0.66 0.66 1.32 1.32 2 2 C1.57347992 5.83868076 -0.45335584 9.5032393 -2 13 C-2.66 12.67 -3.32 12.34 -4 12 C-2.68 8.04 -1.36 4.08 0 0 Z " fill="#548A8F" transform="translate(1257,439)"/>
<path d="M0 0 C0.33 0.66 0.66 1.32 1 2 C-1.97 5.63 -4.94 9.26 -8 13 C-8.66 12.67 -9.32 12.34 -10 12 C-6.7 8.04 -3.4 4.08 0 0 Z " fill="#61ACAC" transform="translate(908,1519)"/>
<path d="M0 0 C0.99 0.33 1.98 0.66 3 1 C1.61918777 5.1424367 -0.59825558 6.32203099 -4 9 C-4.66 8.67 -5.32 8.34 -6 8 C-4.02 5.36 -2.04 2.72 0 0 Z " fill="#4DA6A9" transform="translate(996,1403)"/>
<path d="M0 0 C0.99 0.33 1.98 0.66 3 1 C0.03 3.97 -2.94 6.94 -6 10 C-6.33 9.01 -6.66 8.02 -7 7 C-6.34 7 -5.68 7 -5 7 C-4.731875 6.360625 -4.46375 5.72125 -4.1875 5.0625 C-3 3 -3 3 0 2 C0 1.34 0 0.68 0 0 Z " fill="#47ABA4" transform="translate(1485,1012)"/>
<path d="M0 0 C-0.47202486 4.24822374 -2.96655518 6.19989709 -6 9 C-5.38983051 3.50847458 -5.38983051 3.50847458 -3.5625 1.125 C-2 0 -2 0 0 0 Z " fill="#4CA5A6" transform="translate(1208,461)"/>
<path d="M0 0 C0.33 1.32 0.66 2.64 1 4 C-1.31 5.98 -3.62 7.96 -6 10 C-6 6.41087588 -5.33563446 5.89142971 -3 3.3125 C-2.443125 2.68988281 -1.88625 2.06726563 -1.3125 1.42578125 C-0.879375 0.95527344 -0.44625 0.48476563 0 0 Z " fill="#92A49B" transform="translate(1304,336)"/>
<path d="M0 0 C0.33 0.66 0.66 1.32 1 2 C5.455 1.505 5.455 1.505 10 1 C4.42798997 3.78600502 0.2067169 4.12170033 -6 4 C-5.38125 3.71125 -4.7625 3.4225 -4.125 3.125 C-1.86674235 2.06279958 -1.86674235 2.06279958 0 0 Z " fill="#409B9D" transform="translate(1154,1703)"/>
<path d="M0 0 C0.66 0 1.32 0 2 0 C0.6062718 4.43458973 -1.60582235 6.87378374 -5 10 C-4.67 8.35 -4.34 6.7 -4 5 C-3.34 5 -2.68 5 -2 5 C-1.7834375 4.0409375 -1.7834375 4.0409375 -1.5625 3.0625 C-1 1 -1 1 0 0 Z " fill="#53A6A3" transform="translate(799,1013)"/>
<path d="M0 0 C0.66 0.99 1.32 1.98 2 3 C-0.64 5.31 -3.28 7.62 -6 10 C-6 6.41087588 -5.33563446 5.89142971 -3 3.3125 C-2.443125 2.68988281 -1.88625 2.06726563 -1.3125 1.42578125 C-0.879375 0.95527344 -0.44625 0.48476563 0 0 Z " fill="#A4B2AB" transform="translate(1312,326)"/>
<path d="M0 0 C0.33 0.99 0.66 1.98 1 3 C-0.65 4.65 -2.3 6.3 -4 8 C-4.33 7.01 -4.66 6.02 -5 5 C-3.35 3.35 -1.7 1.7 0 0 Z " fill="#36A5A4" transform="translate(1490,1523)"/>
<path d="M0 0 C0.33 0.99 0.66 1.98 1 3 C-1.31 4.98 -3.62 6.96 -6 9 C-6.66 8.67 -7.32 8.34 -8 8 C-5.36 5.36 -2.72 2.72 0 0 Z " fill="#65B2AF" transform="translate(549,1112)"/>
<path d="M0 0 C0.66 0 1.32 0 2 0 C0.6062718 4.43458973 -1.60582235 6.87378374 -5 10 C-5.33 9.01 -5.66 8.02 -6 7 C-4.625 5.5 -4.625 5.5 -3 4 C-2.34 4 -1.68 4 -1 4 C-0.67 2.68 -0.34 1.36 0 0 Z " fill="#51A8A4" transform="translate(1092,614)"/>
<path d="M0 0 C0 3.65351863 -0.88942301 5.06026776 -3 8 C-5.1875 9.3125 -5.1875 9.3125 -7 10 C-2.85714286 2.42857143 -2.85714286 2.42857143 0 0 Z " fill="#57ABA8" transform="translate(523,601)"/>
<path d="M0 0 C0.66 0.33 1.32 0.66 2 1 C-0.97 4.96 -0.97 4.96 -4 9 C-4.33 7.68 -4.66 6.36 -5 5 C-2.5625 2.25 -2.5625 2.25 0 0 Z " fill="#50A7A6" transform="translate(1195,477)"/>
<path d="M0 0 C0.66 0.33 1.32 0.66 2 1 C-0.97 4.96 -0.97 4.96 -4 9 C-4.33 8.01 -4.66 7.02 -5 6 C-3.6875 3.8125 -3.6875 3.8125 -2 2 C-1.34 2 -0.68 2 0 2 C0 1.34 0 0.68 0 0 Z " fill="#51AAA5" transform="translate(699,1152)"/>
<path d="M0 0 C0.99 0.33 1.98 0.66 3 1 C0.03 4.96 0.03 4.96 -3 9 C-3.33 8.01 -3.66 7.02 -4 6 C-3.34 6 -2.68 6 -2 6 C-1.855625 5.195625 -1.71125 4.39125 -1.5625 3.5625 C-1 1 -1 1 0 0 Z " fill="#53A8A5" transform="translate(1034,692)"/>
<path d="M0 0 C0.66 0.33 1.32 0.66 2 1 C0.55746343 4.36591866 -1.33264727 6.51047079 -4 9 C-2.25 2.25 -2.25 2.25 0 0 Z " fill="#4EA6A4" transform="translate(1111,588)"/>
<path d="M0 0 C0.33 0.66 0.66 1.32 1 2 C-0.305239 4.61047801 -1.35826574 4.68066423 -4.0625 5.625 C-4.79597656 5.88539063 -5.52945313 6.14578125 -6.28515625 6.4140625 C-6.85105469 6.60742188 -7.41695312 6.80078125 -8 7 C-6.5361389 2.60841671 -4.02168662 2.12052567 0 0 Z " fill="#4BA5A6" transform="translate(639,499)"/>
<path d="M0 0 C0.99 0.33 1.98 0.66 3 1 C2.19152271 2.16945792 1.37810888 3.33550461 0.5625 4.5 C0.11003906 5.1496875 -0.34242188 5.799375 -0.80859375 6.46875 C-1.20175781 6.9740625 -1.59492187 7.479375 -2 8 C-2.33 8 -2.66 8 -3 8 C-3.36923077 3.44615385 -3.36923077 3.44615385 -1.5 1.1875 C-1.005 0.795625 -0.51 0.40375 0 0 Z " fill="#52A8A5" transform="translate(972,776)"/>
<path d="M0 0 C0.33 1.32 0.66 2.64 1 4 C-0.65 5.32 -2.3 6.64 -4 8 C-3.40072174 4.64404172 -2.15377564 2.62198774 0 0 Z " fill="#50A7A9" transform="translate(836,1613)"/>
<path d="M0 0 C1 3 1 3 -0.4375 6.1875 C-1.2109375 7.5796875 -1.2109375 7.5796875 -2 9 C-2.98120464 5.94736336 -2.98120464 4.05263664 -2 1 C-1.34 1.33 -0.68 1.66 0 2 C0 1.34 0 0.68 0 0 Z " fill="#53A3A5" transform="translate(837,1449)"/>
<path d="M0 0 C0.66 0.66 1.32 1.32 2 2 C-1.465 4.97 -1.465 4.97 -5 8 C-3.95206337 3.80825346 -3.08236365 2.78407039 0 0 Z " fill="#EEFDF1" transform="translate(501,1155)"/>
<path d="M0 0 C0.99 0.33 1.98 0.66 3 1 C-1.75 5.875 -1.75 5.875 -4 7 C-2.79618552 4.50638429 -1.54571278 2.31856917 0 0 Z " fill="#55AAAB" transform="translate(1126,1232)"/>
<path d="M0 0 C0.66 0.99 1.32 1.98 2 3 C0.35 4.65 -1.3 6.3 -3 8 C-3.66 7.67 -4.32 7.34 -5 7 C-3.35 4.69 -1.7 2.38 0 0 Z " fill="#50A8AB" transform="translate(1223,1103)"/>
</svg>
